# xmcd
#
# Track frame offsets:
#	150
#	21015
#	42916
#	62915
#	77275
#	97272
#	128671
#	142575
#	156467
#	176819
#	193027
#
# Disc length: 2810 seconds
# Revision: 0
# Processed by: cddbd v1.5.2PL0 Copyright (c) Steve Scherf et al.
# Submitted via: dBpowerAMP V12.0
#
DISCID=8e0af80b
DTITLE=Woodland, Nick - The Goodburn Clearing House (ex mp3z)
DYEAR=2011
DGENRE=Blues
TTITLE0=Road
TTITLE1=Way To My Heart
TTITLE2=Je vais devenir fou
TTITLE3=Poer
TTITLE4=No Other Woman
TTITLE5=Watching The Egyptians
TTITLE6=Chris And Ade
TTITLE7=On T.V.
TTITLE8=Likes Of You
TTITLE9=Rocket Coffee
TTITLE10=Not Soon Enough
EXTD=
EXTT0=
EXTT1=
EXTT2=
EXTT3=
EXTT4=
EXTT5=
EXTT6=
EXTT7=
EXTT8=
EXTT9=
EXTT10=
PLAYORDER=
